<?xml version="1.0" encoding="utf-8"?>
<!-- Generator: Adobe Illustrator 25.2.0, SVG Export Plug-In . SVG Version: 6.00 Build 0)  -->
<svg version="1.1" id="Layer_1" xmlns="http://www.w3.org/2000/svg" xmlns:xlink="http://www.w3.org/1999/xlink" x="0px" y="0px"
	 viewBox="0 0 1366 768" style="enable-background:new 0 0 1366 768;" xml:space="preserve">
<style type="text/css">
	.st0{fill:#399B38;}
	.st1{fill:url(#SVGID_1_);}
	.st2{fill:#7EB438;}
	.st3{fill:none;}
</style>
<g>
	<path class="st0" d="M1049.18,270.52c-0.57,1.52-0.77,3.33-1.75,4.5c-14.65,17.56-21.4,38.35-24.52,60.52
		c-2.18,15.44-3.47,31.01-5.87,46.41c-2.53,16.14-8.71,30.89-19.57,43.4c-0.18,0.2-0.33,0.42-0.47,0.65
		c-7.21,7.62-16.77,16.46-29,25c-11.6,8.1-22.6,13.85-31.85,17.93c-0.67,0.07-1.33,0.15-2,0.24c-5.46,0.75-10.73,3.18-15.98,5.13
		c-2.67,0.99-4.1,0.18-5.55-2.01c-6.14-9.3-6.58-19.42-4.44-29.89c2.98-14.62,10.48-27.13,18.64-39.31
		c1.85-2.75,3.78-5.44,5.14-8.86c-0.7,0.21-1.6,0.21-2.05,0.67c-11.19,11.28-21.59,24.34-27.11,39.79
		c-0.63,1.76-1.88,5.43-2.8,10.31c-0.98,1.12-2.01,2.45-3,4c-2.11,3.32-3.31,6.5-4,9c-1.29-3.37-2.59-6.73-3.88-10.1
		c-0.06-0.72-0.16-1.46-0.28-2.19c0-0.01-0.01-0.02-0.01-0.03c-0.18-1.1-0.42-2.2-0.65-3.26c-3.44-15.84-4.72-31.86-3.37-47.98
		c3.71-44.16,25.21-76.25,65.23-95.89c21.26-10.43,43.9-16.13,66.85-21.1c9.24-2,18.28-4.95,27.46-7.28
		C1045.84,269.79,1047.57,270.38,1049.18,270.52z"/>
	
		<radialGradient id="SVGID_1_" cx="813.7288" cy="377.9744" r="152.3626" fx="965.972" fy="371.9453" gradientTransform="matrix(-0.3376 -0.9413 1.2812 -0.4595 604.1689 1317.6157)" gradientUnits="userSpaceOnUse">
		<stop  offset="0" style="stop-color:#4691CB"/>
		<stop  offset="0.1523" style="stop-color:#458DC7"/>
		<stop  offset="0.293" style="stop-color:#4282BC"/>
		<stop  offset="0.4286" style="stop-color:#3D70AA"/>
		<stop  offset="0.5541" style="stop-color:#375792"/>
		<stop  offset="0.6078" style="stop-color:#354A7B"/>
		<stop  offset="0.6719" style="stop-color:#333F67"/>
		<stop  offset="0.7458" style="stop-color:#31375A"/>
		<stop  offset="0.8373" style="stop-color:#303251"/>
		<stop  offset="1" style="stop-color:#30314F"/>
	</radialGradient>
	<path class="st1" d="M910.92,318.65c-21.05,19.08-31.98,43.16-35.02,71.13c-1.69,15.5-0.99,30.9,1.64,46.24
		c0.1,0.58,0.12,1.17-0.55,2.19c-0.71-1-1.48-1.95-2.13-2.99c-7.79-12.58-16.96-23.97-27.85-34.07
		c-14.51-13.45-31.74-19.21-51.19-19.32c-11.12-0.06-22.26,0.36-33.34-0.23c-13.94-0.74-27.87-2.01-41.73-3.62
		c-7.63-0.88-14.72-3.8-20.62-9.04c-0.92-0.83-1.99-1.5-3.02-2.2c-0.14-0.1-0.45,0.04-0.68,0.07c3.61,6.77,7.54,13.37,10.72,20.32
		c4.5,9.85,8.16,20.08,12.68,29.92c14.37,31.31,37,53.45,71.06,62.21c13.82,3.56,27.86,3.15,41.91,0.61
		c13.81-2.49,26.98-6.84,39.68-12.74c0.67-0.31,1.34-0.64,1.99-1.02c0.14-0.08,0.15-0.4,0.28-0.82
		c-21.29-1.35-42.08-4.25-59.33-18.62c21.09,9.5,42.34,15.24,64.93,3.94c1.08,3.68,2.09,7.11,3.22,10.96
		c1.98-3.45,4.46-6.34,5.3-9.65c0.25-0.99,0.33-2.04,0.3-3.12c-0.01-0.25-0.02-0.51-0.04-0.76c0-0.05-0.01-0.09-0.01-0.14
		c1.29,3.37,2.59,6.73,3.88,10.1c0.69-2.5,1.89-5.68,4-9c0.99-1.55,2.02-2.88,3-4c-0.22,1.14-0.43,2.31-0.61,3.58
		c-0.02,0.17-0.05,0.33-0.07,0.5c-0.01,0.13-0.03,0.26-0.05,0.38c-0.16,1.37-0.27,2.85-0.27,4.54c-0.01,2.12,0.01,5.19,1,9
		c0.44,1.7,1.05,4.03,2.53,6.72c0.09,0.17,0.18,0.33,0.26,0.5c-3.53,3.76-7.78,7.78-12.79,11.78c-7.88,6.28-15.51,10.78-22,14
		c-4.79,2.19-11.28,4.89-19.16,7.39c-7.97,2.53-20.88,6.53-38.31,7.37c-19.1,0.92-37.54-2.01-55.22-9.06
		c-21.73-8.66-39.96-22.12-54.46-40.67c-11.09-14.2-18.64-29.98-22.98-47.36c-3.97-15.94-4.76-32.11-1.84-48.25
		c8.29-45.81,34.59-77.74,76.84-96.19c26.84-11.73,55-13.67,83.57-6.56c31.1,7.74,56.13,24.57,75.11,50.44
		C913.29,315.49,912.99,316.77,910.92,318.65z"/>
	<path class="st2" d="M926.99,306.3c-1.03,0.42-1.92,1.16-2.86,1.78c-5.29,3.5-5.23,3.48-8.22-2.31
		c-16.46-31.99-41.03-55.77-73.31-71.46c-33.82-16.43-69.54-20.02-106.2-13.46c-30.33,5.42-57.06,18.79-79.83,39.74
		c-29.91,27.51-47.09,61.41-50.5,101.97c-2.91,34.59,5.22,66.61,23.98,95.82c21.23,33.08,51.09,55.08,88.17,67.38
		c23,7.63,36.24,10.1,48.96,7.73c1.37-0.25,2.5-0.51,3.24-0.69c-46.68-4.14-84.83-23.98-112.17-62.21
		c-21.28-29.74-29.63-63.45-24.28-99.7c11.69-79.25,83.38-124.74,145.04-122.41c-7.42,1.57-14.34,2.86-21.17,4.52
		c-17.05,4.15-32.5,11.79-46.66,22.09c-17.31,12.6-30.97,28.46-40.8,47.44c-10.47,20.22-15.15,41.82-14.29,64.63
		c1.17,30.84,12.1,57.84,32.05,81.16c15.77,18.45,35.33,31.59,58.21,39.83c6.46,2.33,12.96,4.14,19.51,5.47
		c20.82,4.21,38.82,2.88,50.46,1.07c23.44-3.67,41.1-12.38,51.68-18.69c6.49-3.22,14.12-7.72,22-14c5.01-4,9.26-8.02,12.79-11.78
		c0.83,1.57,1.57,3.2,2.45,4.76c1.27,2.28,1.36,3.53-0.28,5.48c-13.53,16.12-29.55,29.23-47.82,39.56
		c-13.62,7.7-28.07,13.47-43.27,17.27c-21.63,5.42-43.48,7.02-65.69,4.44c-19.49-2.27-38.19-7.32-55.88-15.68
		c-28.89-13.66-52.71-33.52-70.53-60.13c-26.4-39.42-34.75-82.65-25.15-128.98c8.31-40.09,29.52-72.61,61.32-98.15
		c22.85-18.35,48.9-30.06,77.68-35.78c30.73-6.1,60.83-3.67,90.38,6.41c30.62,10.45,56.54,27.89,77.71,52.4
		c10.16,11.76,18.47,24.68,25.21,38.66C930.31,303.37,929.97,305.08,926.99,306.3z"/>
	<path class="st2" d="M1094.15,481.04c-1.36,0.62-2.69,1.72-4.07,1.77c-17.61,0.69-33.66,6.52-49.01,14.67
		c-12.86,6.82-25.38,14.31-38.47,20.66c-16.2,7.86-33.37,8.22-50.88,4.84c-18.48-3.57-35.08-11-50.03-22.37
		c-2.39-1.82-2.79-3.29-1.5-5.89c5.1-10.2,13.73-16.3,24.24-19.11c9.69-2.59,19.8-3.6,29.73-5.3c1.24-0.21,2.47-0.41,4.11-0.68
		c-0.66-0.85-0.88-1.37-1.09-1.36c-7.01,0.18-14.09-0.08-21.03,0.66c9.25-4.08,20.25-9.83,31.85-17.93c12.23-8.54,21.79-17.38,29-25
		c-0.26,0.39-0.48,0.81-0.74,1.22c6.78,1.42,13.48,2.59,20.06,4.24c15.19,3.81,28.71,11.16,41.24,20.36
		c11.53,8.45,22.92,17.1,34.29,25.76C1092.89,478.37,1093.4,479.87,1094.15,481.04z"/>
	<path class="st3" d="M903,470c-0.07,0.07-0.14,0.14-0.21,0.22"/>
	<path class="st2" d="M806.31,191.59c-1.3,0.28-2.65,0.94-3.9,0.79c-14.34-1.7-28.63-4.25-43.02-5.14
		c-22.85-1.4-45.33,1.69-67.27,8.38c-29.83,9.09-55.9,24.53-78.43,46.1c-13.51,12.94-24.94,27.52-34.48,43.54
		c-16.44,27.63-24.41,57.66-24.24,102.9c0.17,21.6,9.42,53.84,25.78,84.28c8.91,16.56,19.85,31.63,31.89,46
		c1.1,1.31,1.4,3.29,2.08,4.96c-1.54-0.76-3.32-1.23-4.57-2.31c-27.8-24.13-49.15-52.89-61.94-87.59
		c-10.75-29.16-13.62-59.2-9.02-89.93c5.75-38.35,22.06-71.75,47.89-100.49c25.74-28.65,57.47-47.86,94.52-58.02
		c36.68-10.06,73.47-9.7,110.14,0.43c3.84,1.06,7.66,2.24,11.4,3.61C804.34,189.53,805.26,190.74,806.31,191.59z"/>
	<path class="st3" d="M868,492"/>
	<path class="st3" d="M893,458"/>
	<path class="st3" d="M888,444"/>
	<path class="st3" d="M893,458"/>
	<path class="st3" d="M936.15,468.93c-0.05,0.03-0.1,0.05-0.15,0.07"/>
	<path class="st3" d="M894,454"/>
	<path class="st3" d="M891,451"/>
	<path class="st3" d="M889,447"/>
	<path class="st3" d="M889.12,447.9c-0.03-0.07-0.06-0.15-0.09-0.22"/>
</g>
</svg>
