<?xml version="1.0" encoding="utf-8"?>
<!-- Generator: Adobe Illustrator 25.2.0, SVG Export Plug-In . SVG Version: 6.00 Build 0)  -->
<svg version="1.1" id="Layer_1" xmlns="http://www.w3.org/2000/svg" xmlns:xlink="http://www.w3.org/1999/xlink" x="0px" y="0px"
	 viewBox="0 0 1366 768" style="enable-background:new 0 0 1366 768;" xml:space="preserve">
<style type="text/css">
	.st0{fill:#399B38;}
	.st1{fill:url(#SVGID_1_);}
	.st2{fill:#7EB438;}
	.st3{fill:none;}
	.st4{fill:#309B31;}
	.st5{fill:#191919;}
</style>
<g>
	<g>
		<g>
			<path class="st0" d="M926.18,224.52c-0.57,1.52-0.77,3.33-1.75,4.5c-14.65,17.56-21.4,38.35-24.52,60.52
				c-2.18,15.44-3.47,31.01-5.87,46.41c-2.53,16.14-8.71,30.89-19.57,43.4c-0.18,0.2-0.33,0.42-0.47,0.65
				c-7.21,7.62-16.77,16.46-29,25c-11.6,8.1-22.6,13.85-31.85,17.93c-0.67,0.07-1.33,0.15-2,0.24c-5.46,0.75-10.73,3.18-15.98,5.13
				c-2.67,0.99-4.1,0.18-5.55-2.01c-6.14-9.3-6.58-19.42-4.44-29.89c2.98-14.62,10.48-27.13,18.64-39.31
				c1.85-2.75,3.78-5.44,5.14-8.86c-0.7,0.21-1.6,0.21-2.05,0.67c-11.19,11.28-21.59,24.34-27.11,39.79
				c-0.63,1.76-1.88,5.43-2.8,10.31c-0.98,1.12-2.01,2.45-3,4c-2.11,3.32-3.31,6.5-4,9c-1.29-3.37-2.59-6.73-3.88-10.1
				c-0.06-0.72-0.16-1.46-0.28-2.19c0-0.01-0.01-0.02-0.01-0.03c-0.18-1.1-0.42-2.2-0.65-3.26c-3.44-15.84-4.72-31.86-3.37-47.98
				c3.71-44.16,25.21-76.25,65.23-95.89c21.26-10.43,43.9-16.13,66.85-21.1c9.24-2,18.28-4.95,27.46-7.28
				C922.84,223.79,924.57,224.38,926.18,224.52z"/>
			
				<radialGradient id="SVGID_1_" cx="690.7288" cy="331.9744" r="152.3626" fx="842.972" fy="325.9453" gradientTransform="matrix(-0.3376 -0.9413 1.2812 -0.4595 498.5811 1134.6991)" gradientUnits="userSpaceOnUse">
				<stop  offset="0" style="stop-color:#4691CB"/>
				<stop  offset="0.1523" style="stop-color:#458DC7"/>
				<stop  offset="0.293" style="stop-color:#4282BC"/>
				<stop  offset="0.4286" style="stop-color:#3D70AA"/>
				<stop  offset="0.5541" style="stop-color:#375792"/>
				<stop  offset="0.6078" style="stop-color:#354A7B"/>
				<stop  offset="0.6719" style="stop-color:#333F67"/>
				<stop  offset="0.7458" style="stop-color:#31375A"/>
				<stop  offset="0.8373" style="stop-color:#303251"/>
				<stop  offset="1" style="stop-color:#30314F"/>
			</radialGradient>
			<path class="st1" d="M787.92,272.65c-21.05,19.08-31.98,43.16-35.02,71.13c-1.69,15.5-0.99,30.9,1.64,46.24
				c0.1,0.58,0.12,1.17-0.55,2.19c-0.71-1-1.48-1.95-2.13-2.99c-7.79-12.58-16.96-23.97-27.85-34.07
				c-14.51-13.45-31.74-19.21-51.19-19.32c-11.12-0.06-22.26,0.36-33.34-0.23c-13.94-0.74-27.87-2.01-41.73-3.62
				c-7.63-0.88-14.72-3.8-20.62-9.04c-0.92-0.83-1.99-1.5-3.02-2.2c-0.14-0.1-0.45,0.04-0.68,0.07c3.61,6.77,7.54,13.37,10.72,20.32
				c4.5,9.85,8.16,20.08,12.68,29.92c14.37,31.31,37,53.45,71.06,62.21c13.82,3.56,27.86,3.15,41.91,0.61
				c13.81-2.49,26.98-6.84,39.68-12.74c0.67-0.31,1.34-0.64,1.99-1.02c0.14-0.08,0.15-0.4,0.28-0.82
				c-21.29-1.35-42.08-4.25-59.33-18.62c21.09,9.5,42.34,15.24,64.93,3.94c1.08,3.68,2.09,7.11,3.22,10.96
				c1.98-3.45,4.46-6.34,5.3-9.65c0.25-0.99,0.33-2.04,0.3-3.12c-0.01-0.25-0.02-0.51-0.04-0.76c0-0.05-0.01-0.09-0.01-0.14
				c1.29,3.37,2.59,6.73,3.88,10.1c0.69-2.5,1.89-5.68,4-9c0.99-1.55,2.02-2.88,3-4c-0.22,1.14-0.43,2.31-0.61,3.58
				c-0.02,0.17-0.05,0.33-0.07,0.5c-0.01,0.13-0.03,0.26-0.05,0.38c-0.16,1.37-0.27,2.85-0.27,4.54c-0.01,2.12,0.01,5.19,1,9
				c0.44,1.7,1.05,4.03,2.53,6.72c0.09,0.17,0.18,0.33,0.26,0.5c-3.53,3.76-7.78,7.78-12.79,11.78c-7.88,6.28-15.51,10.78-22,14
				c-4.79,2.19-11.28,4.89-19.16,7.39c-7.97,2.53-20.88,6.53-38.31,7.37c-19.1,0.92-37.54-2.01-55.22-9.06
				c-21.73-8.66-39.96-22.12-54.46-40.67c-11.09-14.2-18.64-29.98-22.98-47.36c-3.97-15.94-4.76-32.11-1.84-48.25
				c8.29-45.81,34.59-77.74,76.84-96.19c26.84-11.73,55-13.67,83.57-6.56c31.1,7.74,56.13,24.57,75.11,50.44
				C790.29,269.49,789.99,270.77,787.92,272.65z"/>
			<path class="st2" d="M803.99,260.3c-1.03,0.42-1.92,1.16-2.86,1.78c-5.29,3.5-5.23,3.48-8.22-2.31
				c-16.46-31.99-41.03-55.77-73.31-71.46c-33.82-16.43-69.54-20.02-106.2-13.46c-30.33,5.42-57.06,18.79-79.83,39.74
				c-29.91,27.51-47.09,61.41-50.5,101.97c-2.91,34.59,5.22,66.61,23.98,95.82c21.23,33.08,51.09,55.08,88.17,67.38
				c23,7.63,36.24,10.1,48.96,7.73c1.37-0.25,2.5-0.51,3.24-0.69c-46.68-4.14-84.83-23.98-112.17-62.21
				c-21.28-29.74-29.63-63.45-24.28-99.7c11.69-79.25,83.38-124.74,145.04-122.41c-7.42,1.57-14.34,2.86-21.17,4.52
				c-17.05,4.15-32.5,11.79-46.66,22.09c-17.31,12.6-30.97,28.46-40.8,47.44c-10.47,20.22-15.15,41.82-14.29,64.63
				c1.17,30.84,12.1,57.84,32.05,81.16c15.77,18.45,35.33,31.59,58.21,39.83c6.46,2.33,12.96,4.14,19.51,5.47
				c20.82,4.21,38.82,2.88,50.46,1.07c23.44-3.67,41.1-12.38,51.68-18.69c6.49-3.22,14.12-7.72,22-14c5.01-4,9.26-8.02,12.79-11.78
				c0.83,1.57,1.57,3.2,2.45,4.76c1.27,2.28,1.36,3.53-0.28,5.48c-13.53,16.12-29.55,29.23-47.82,39.56
				c-13.62,7.7-28.07,13.47-43.27,17.27c-21.63,5.42-43.48,7.02-65.69,4.44c-19.49-2.27-38.19-7.32-55.88-15.68
				c-28.89-13.66-52.71-33.52-70.53-60.13c-26.4-39.42-34.75-82.65-25.15-128.98c8.31-40.09,29.52-72.61,61.32-98.15
				c22.85-18.35,48.9-30.06,77.68-35.78c30.73-6.1,60.83-3.67,90.38,6.41c30.62,10.45,56.54,27.89,77.71,52.4
				c10.16,11.76,18.47,24.68,25.21,38.66C807.31,257.37,806.97,259.08,803.99,260.3z"/>
			<path class="st2" d="M971.15,435.04c-1.36,0.62-2.69,1.72-4.07,1.77c-17.61,0.69-33.66,6.52-49.01,14.67
				c-12.86,6.82-25.38,14.31-38.47,20.66c-16.2,7.86-33.37,8.22-50.88,4.84c-18.48-3.57-35.08-11-50.03-22.37
				c-2.39-1.82-2.79-3.29-1.5-5.89c5.1-10.2,13.73-16.3,24.24-19.11c9.69-2.59,19.8-3.6,29.73-5.3c1.24-0.21,2.47-0.41,4.11-0.68
				c-0.66-0.85-0.88-1.37-1.09-1.36c-7.01,0.18-14.09-0.08-21.03,0.66c9.25-4.08,20.25-9.83,31.85-17.93
				c12.23-8.54,21.79-17.38,29-25c-0.26,0.39-0.48,0.81-0.74,1.22c6.78,1.42,13.48,2.59,20.06,4.24
				c15.19,3.81,28.71,11.16,41.24,20.36c11.53,8.45,22.92,17.1,34.29,25.76C969.89,432.37,970.4,433.87,971.15,435.04z"/>
			<path class="st3" d="M780,424c-0.07,0.07-0.14,0.14-0.21,0.22"/>
			<path class="st2" d="M683.31,145.59c-1.3,0.28-2.65,0.94-3.9,0.79c-14.34-1.7-28.63-4.25-43.02-5.14
				c-22.85-1.4-45.33,1.69-67.27,8.38c-29.83,9.09-55.9,24.53-78.43,46.1c-13.51,12.94-24.94,27.52-34.48,43.54
				c-16.44,27.63-24.41,57.66-24.24,102.9c0.17,21.6,9.42,53.84,25.78,84.28c8.91,16.56,19.85,31.63,31.89,46
				c1.1,1.31,1.4,3.29,2.08,4.96c-1.54-0.76-3.32-1.23-4.57-2.31c-27.8-24.13-49.15-52.89-61.94-87.59
				c-10.75-29.16-13.62-59.2-9.02-89.93c5.75-38.35,22.06-71.75,47.89-100.49c25.74-28.65,57.47-47.86,94.52-58.02
				c36.68-10.06,73.47-9.7,110.14,0.43c3.84,1.06,7.66,2.24,11.4,3.61C681.34,143.53,682.26,144.74,683.31,145.59z"/>
			<path class="st3" d="M745,446"/>
			<path class="st3" d="M770,412"/>
			<path class="st3" d="M765,398"/>
			<path class="st3" d="M770,412"/>
			<path class="st3" d="M813.15,422.93c-0.05,0.03-0.1,0.05-0.15,0.07"/>
			<path class="st3" d="M771,408"/>
			<path class="st3" d="M768,405"/>
			<path class="st3" d="M766,401"/>
			<path class="st3" d="M766.12,401.9c-0.03-0.07-0.06-0.15-0.09-0.22"/>
		</g>
		<g>
			<path class="st4" d="M376.18,556.16h-8.79l-1.22,5.05h-7.9l9.42-30.57h8.44l9.41,30.57h-8.11L376.18,556.16z M374.57,549.55
				l-2.77-10.99l-2.74,10.99H374.57z"/>
			<path class="st4" d="M388,530.64h7.74v23.04h12.08v7.53H388V530.64z"/>
			<path class="st4" d="M411.34,530.64h7.74v23.04h12.08v7.53h-19.82V530.64z"/>
			<path class="st4" d="M434.65,530.64h12.87c2.8,0,4.9,0.81,6.3,2.44s2.09,3.94,2.09,6.94c0,3.09-0.76,5.5-2.28,7.24
				c-1.52,1.74-3.84,2.61-6.96,2.61h-4.24v11.34h-7.78V530.64z M442.43,543.67h1.9c1.49,0,2.54-0.32,3.14-0.95
				c0.6-0.63,0.91-1.44,0.91-2.43c0-0.96-0.26-1.77-0.79-2.44c-0.52-0.67-1.51-1-2.96-1h-2.2V543.67z"/>
			<path class="st4" d="M460.07,561.2v-30.57h12.9c2.39,0,4.22,0.25,5.49,0.75c1.26,0.5,2.28,1.43,3.06,2.78
				c0.77,1.35,1.16,3.01,1.16,4.95c0,1.7-0.3,3.16-0.89,4.39c-0.59,1.23-1.41,2.23-2.45,2.99c-0.66,0.49-1.57,0.89-2.72,1.21
				c0.92,0.38,1.59,0.75,2.02,1.13c0.28,0.25,0.7,0.79,1.24,1.61c0.54,0.82,0.9,1.45,1.08,1.9l3.75,8.86h-8.75l-4.14-9.34
				c-0.52-1.21-0.99-1.99-1.4-2.36c-0.56-0.47-1.19-0.71-1.9-0.71h-0.68v12.41H460.07z M467.84,543.02h3.26
				c0.35,0,1.04-0.14,2.05-0.42c0.51-0.12,0.93-0.45,1.26-0.96c0.33-0.51,0.49-1.11,0.49-1.77c0-0.99-0.26-1.74-0.77-2.27
				s-1.48-0.79-2.89-0.79h-3.4V543.02z"/>
			<path class="st4" d="M485.62,545.94c0-4.99,1.14-8.88,3.42-11.66c2.28-2.78,5.45-4.17,9.52-4.17c4.17,0,7.38,1.37,9.64,4.1
				c2.26,2.73,3.38,6.56,3.38,11.48c0,3.57-0.49,6.5-1.48,8.79c-0.99,2.29-2.41,4.07-4.27,5.34c-1.86,1.27-4.18,1.91-6.96,1.91
				c-2.83,0-5.16-0.55-7.02-1.65c-1.85-1.1-3.35-2.83-4.5-5.21C486.19,552.49,485.62,549.51,485.62,545.94z M493.36,545.98
				c0,3.09,0.47,5.3,1.41,6.65c0.94,1.35,2.22,2.02,3.84,2.02c1.66,0,2.95-0.66,3.86-1.98c0.91-1.32,1.37-3.69,1.37-7.11
				c0-2.88-0.48-4.98-1.43-6.31c-0.95-1.33-2.24-1.99-3.87-1.99c-1.56,0-2.81,0.67-3.76,2.02
				C493.83,540.64,493.36,542.87,493.36,545.98z"/>
			<path class="st4" d="M540.01,550.13v-6.36h11.96v13.03c-2.29,1.9-4.31,3.2-6.08,3.89c-1.76,0.69-3.85,1.03-6.26,1.03
				c-2.97,0-5.4-0.62-7.27-1.86s-3.33-3.08-4.36-5.53c-1.03-2.45-1.55-5.25-1.55-8.42c0-3.34,0.56-6.24,1.69-8.7
				s2.78-4.34,4.96-5.62c1.7-0.99,3.98-1.48,6.85-1.48c2.77,0,4.84,0.31,6.21,0.92c1.37,0.61,2.51,1.56,3.42,2.85
				c0.91,1.29,1.59,2.92,2.04,4.89l-7.47,1.63c-0.31-1.15-0.83-2.04-1.56-2.65c-0.74-0.61-1.67-0.92-2.81-0.92
				c-1.7,0-3.05,0.72-4.06,2.16c-1.01,1.44-1.51,3.71-1.51,6.83c0,3.31,0.51,5.67,1.53,7.09c1.02,1.42,2.44,2.13,4.26,2.13
				c0.87,0,1.69-0.15,2.48-0.46s1.69-0.83,2.7-1.56v-2.88H540.01z"/>
			<path class="st4" d="M556.68,561.2v-30.57h12.9c2.39,0,4.22,0.25,5.49,0.75c1.26,0.5,2.28,1.43,3.06,2.78
				c0.77,1.35,1.16,3.01,1.16,4.95c0,1.7-0.3,3.16-0.89,4.39c-0.59,1.23-1.41,2.23-2.45,2.99c-0.66,0.49-1.57,0.89-2.72,1.21
				c0.92,0.38,1.59,0.75,2.02,1.13c0.28,0.25,0.7,0.79,1.24,1.61c0.54,0.82,0.9,1.45,1.08,1.9l3.75,8.86h-8.75l-4.14-9.34
				c-0.52-1.21-0.99-1.99-1.4-2.36c-0.56-0.47-1.19-0.71-1.9-0.71h-0.68v12.41H556.68z M564.45,543.02h3.26
				c0.35,0,1.04-0.14,2.05-0.42c0.51-0.12,0.93-0.45,1.26-0.96c0.33-0.51,0.49-1.11,0.49-1.77c0-0.99-0.26-1.74-0.77-2.27
				s-1.48-0.79-2.89-0.79h-3.4V543.02z"/>
			<path class="st4" d="M583.78,530.64h20.75v6.53h-12.99v4.86h12.05v6.23h-12.05v6.03h13.36v6.92h-21.12V530.64z"/>
			<path class="st4" d="M609.06,530.64h20.75v6.53h-12.99v4.86h12.05v6.23h-12.05v6.03h13.37v6.92h-21.12V530.64z"/>
			<path class="st4" d="M634.4,530.64h7.23l9.43,16.91v-16.91h7.3v30.57h-7.3l-9.38-16.78v16.78h-7.28V530.64z"/>
			<path d="M675.16,530.64h20.75v6.53h-12.99v4.86h12.05v6.23h-12.05v6.03h13.37v6.92h-21.12V530.64z"/>
			<path d="M700.5,530.64h7.23l9.43,16.91v-16.91h7.3v30.57h-7.3l-9.38-16.78v16.78h-7.28V530.64z"/>
			<path d="M729.59,530.64h20.75v6.53h-12.99v4.86h12.05v6.23h-12.05v6.03h13.37v6.92h-21.12V530.64z"/>
			<path d="M754.99,561.2v-30.57h12.9c2.39,0,4.22,0.25,5.49,0.75c1.26,0.5,2.28,1.43,3.06,2.78c0.78,1.35,1.16,3.01,1.16,4.95
				c0,1.7-0.3,3.16-0.89,4.39c-0.59,1.23-1.41,2.23-2.45,2.99c-0.66,0.49-1.57,0.89-2.72,1.21c0.92,0.38,1.59,0.75,2.02,1.13
				c0.28,0.25,0.7,0.79,1.24,1.61c0.54,0.82,0.9,1.45,1.08,1.9l3.75,8.86h-8.75l-4.14-9.34c-0.52-1.21-0.99-1.99-1.4-2.36
				c-0.56-0.47-1.19-0.71-1.9-0.71h-0.68v12.41H754.99z M762.76,543.02h3.26c0.35,0,1.04-0.14,2.05-0.42
				c0.51-0.12,0.93-0.45,1.26-0.96c0.33-0.51,0.49-1.11,0.49-1.77c0-0.99-0.26-1.74-0.77-2.27c-0.51-0.53-1.48-0.79-2.89-0.79h-3.4
				V543.02z"/>
			<path d="M794.07,550.13v-6.36h11.96v13.03c-2.29,1.9-4.31,3.2-6.08,3.89c-1.76,0.69-3.85,1.03-6.26,1.03
				c-2.97,0-5.4-0.62-7.27-1.86s-3.33-3.08-4.36-5.53c-1.03-2.45-1.55-5.25-1.55-8.42c0-3.34,0.56-6.24,1.69-8.7
				c1.13-2.47,2.78-4.34,4.96-5.62c1.7-0.99,3.98-1.48,6.85-1.48c2.77,0,4.84,0.31,6.21,0.92c1.37,0.61,2.51,1.56,3.42,2.85
				c0.91,1.29,1.59,2.92,2.04,4.89l-7.47,1.63c-0.31-1.15-0.83-2.04-1.56-2.65c-0.74-0.61-1.67-0.92-2.81-0.92
				c-1.7,0-3.05,0.72-4.06,2.16c-1.01,1.44-1.51,3.71-1.51,6.83c0,3.31,0.51,5.67,1.53,7.09c1.02,1.42,2.44,2.13,4.26,2.13
				c0.87,0,1.69-0.15,2.48-0.46s1.69-0.83,2.7-1.56v-2.88H794.07z"/>
			<path d="M808.1,530.64h8.6l5.05,10.31l5.06-10.31h8.55l-9.74,17.76v12.8h-7.76v-12.8L808.1,530.64z"/>
			<path d="M849.53,530.64h7.74v23.04h12.08v7.53h-19.82V530.64z"/>
			<path d="M873.18,530.64h7.76v30.57h-7.76V530.64z"/>
			<path d="M886.41,530.64h10.18l3.93,18.6l3.9-18.6h10.17v30.57h-6.34v-23.31l-4.88,23.31h-5.74l-4.88-23.31v23.31h-6.34V530.64z"
				/>
			<path d="M919.83,530.64h7.76v30.57h-7.76V530.64z"/>
			<path d="M931.39,530.64h23.53v7.55h-7.9v23.02h-7.74v-23.02h-7.9V530.64z"/>
			<path d="M958.41,530.64h20.75v6.53h-12.99v4.86h12.05v6.23h-12.05v6.03h13.37v6.92h-21.12V530.64z"/>
			<path d="M983.8,530.64h11.5c2.27,0,4.1,0.38,5.49,1.13c1.4,0.75,2.55,1.83,3.46,3.23c0.91,1.4,1.57,3.04,1.98,4.9
				c0.41,1.86,0.62,3.84,0.62,5.92c0,3.27-0.31,5.8-0.92,7.6s-1.46,3.31-2.54,4.52c-1.08,1.22-2.24,2.03-3.49,2.43
				c-1.7,0.56-3.24,0.83-4.61,0.83h-11.5V530.64z M991.54,537.56v16.7h1.9c1.62,0,2.77-0.22,3.45-0.66s1.22-1.2,1.61-2.29
				c0.39-1.09,0.58-2.86,0.58-5.31c0-3.24-0.43-5.46-1.3-6.65c-0.87-1.2-2.3-1.79-4.31-1.79H991.54z"/>
			<path class="st5" d="M457.98,591.2v-13.6h7c1.3,0,2.29,0.11,2.98,0.33s1.24,0.64,1.66,1.24c0.42,0.6,0.63,1.34,0.63,2.2
				c0,0.75-0.16,1.41-0.48,1.95c-0.32,0.55-0.76,0.99-1.33,1.33c-0.36,0.22-0.85,0.4-1.48,0.54c0.5,0.17,0.87,0.33,1.09,0.5
				c0.15,0.11,0.38,0.35,0.67,0.71s0.49,0.65,0.59,0.84l2.04,3.94h-4.75l-2.25-4.16c-0.28-0.54-0.54-0.89-0.76-1.05
				c-0.3-0.21-0.65-0.31-1.03-0.31h-0.37v5.52H457.98z M462.2,583.11h1.77c0.19,0,0.56-0.06,1.11-0.19c0.28-0.06,0.51-0.2,0.68-0.43
				c0.18-0.23,0.26-0.49,0.26-0.79c0-0.44-0.14-0.78-0.42-1.01s-0.8-0.35-1.57-0.35h-1.85V583.11z"/>
			<path class="st5" d="M482.92,587.21h-7.57c0.07,0.61,0.23,1.06,0.49,1.35c0.36,0.43,0.84,0.64,1.43,0.64
				c0.37,0,0.72-0.09,1.06-0.28c0.2-0.12,0.42-0.32,0.66-0.62l3.72,0.34c-0.57,0.99-1.26,1.7-2.06,2.13
				c-0.8,0.43-1.96,0.64-3.46,0.64c-1.31,0-2.33-0.18-3.08-0.55c-0.75-0.37-1.37-0.95-1.86-1.75c-0.49-0.8-0.74-1.74-0.74-2.83
				c0-1.54,0.49-2.79,1.48-3.74c0.99-0.95,2.35-1.43,4.09-1.43c1.41,0,2.52,0.21,3.34,0.64c0.82,0.43,1.44,1.05,1.86,1.86
				c0.43,0.81,0.64,1.87,0.64,3.16V587.21z M479.08,585.4c-0.07-0.73-0.27-1.25-0.59-1.57c-0.32-0.32-0.74-0.47-1.26-0.47
				c-0.6,0-1.08,0.24-1.44,0.71c-0.23,0.3-0.37,0.74-0.44,1.33H479.08z"/>
			<path class="st5" d="M484.65,581.35h3.52v1.6c0.53-0.66,1.06-1.12,1.6-1.41c0.54-0.28,1.19-0.42,1.97-0.42
				c1.04,0,1.86,0.31,2.45,0.93c0.59,0.62,0.89,1.58,0.89,2.88v6.26h-3.79v-5.42c0-0.62-0.11-1.06-0.34-1.31
				c-0.23-0.26-0.55-0.38-0.96-0.38c-0.46,0-0.83,0.17-1.11,0.52c-0.28,0.35-0.43,0.97-0.43,1.86v4.73h-3.78V581.35z"/>
			<path class="st5" d="M508.26,587.21h-7.57c0.07,0.61,0.23,1.06,0.49,1.35c0.36,0.43,0.84,0.64,1.43,0.64
				c0.37,0,0.72-0.09,1.06-0.28c0.2-0.12,0.42-0.32,0.66-0.62l3.72,0.34c-0.57,0.99-1.26,1.7-2.06,2.13
				c-0.8,0.43-1.96,0.64-3.46,0.64c-1.31,0-2.33-0.18-3.08-0.55c-0.75-0.37-1.37-0.95-1.86-1.75c-0.49-0.8-0.74-1.74-0.74-2.83
				c0-1.54,0.49-2.79,1.48-3.74c0.99-0.95,2.35-1.43,4.09-1.43c1.41,0,2.52,0.21,3.34,0.64c0.82,0.43,1.44,1.05,1.86,1.86
				c0.43,0.81,0.64,1.87,0.64,3.16V587.21z M504.42,585.4c-0.07-0.73-0.27-1.25-0.59-1.57c-0.32-0.32-0.74-0.47-1.26-0.47
				c-0.6,0-1.08,0.24-1.44,0.71c-0.23,0.3-0.37,0.74-0.44,1.33H504.42z"/>
			<path class="st5" d="M508.89,581.35h3.65l1.58,6.2l2-6.2h3.41l2.08,6.22l1.59-6.22h3.63l-3.63,9.85h-3.36l-2-5.93l-1.93,5.93
				h-3.38L508.89,581.35z"/>
			<path class="st5" d="M531.16,584.54l-3.61-0.38c0.14-0.63,0.33-1.13,0.59-1.49c0.26-0.36,0.63-0.68,1.11-0.94
				c0.35-0.19,0.82-0.34,1.43-0.45c0.61-0.1,1.26-0.16,1.97-0.16c1.13,0,2.04,0.06,2.73,0.19s1.26,0.39,1.72,0.79
				c0.32,0.28,0.58,0.67,0.76,1.18c0.19,0.51,0.28,1,0.28,1.46v4.35c0,0.46,0.03,0.83,0.09,1.09c0.06,0.26,0.19,0.6,0.38,1.01h-3.54
				c-0.14-0.25-0.24-0.45-0.28-0.58c-0.04-0.13-0.09-0.34-0.13-0.63c-0.5,0.48-0.99,0.82-1.48,1.02c-0.67,0.27-1.44,0.41-2.33,0.41
				c-1.18,0-2.07-0.27-2.68-0.82c-0.61-0.54-0.91-1.21-0.91-2.01c0-0.75,0.22-1.36,0.66-1.85c0.44-0.48,1.25-0.84,2.43-1.08
				c1.42-0.28,2.33-0.48,2.76-0.6c0.42-0.11,0.87-0.26,1.34-0.45c0-0.46-0.1-0.79-0.29-0.97c-0.19-0.19-0.53-0.28-1.01-0.28
				c-0.62,0-1.08,0.1-1.39,0.3C531.5,583.82,531.31,584.11,531.16,584.54z M534.44,586.53c-0.52,0.19-1.06,0.35-1.62,0.49
				c-0.77,0.2-1.25,0.4-1.46,0.6c-0.21,0.2-0.32,0.44-0.32,0.7c0,0.3,0.1,0.54,0.31,0.73c0.21,0.19,0.51,0.28,0.91,0.28
				c0.42,0,0.81-0.1,1.17-0.31c0.36-0.21,0.62-0.45,0.77-0.75c0.15-0.29,0.23-0.68,0.23-1.15V586.53z"/>
			<path class="st5" d="M540.6,577.6h3.81v4.71c0.38-0.4,0.81-0.69,1.29-0.89c0.48-0.2,1.01-0.3,1.59-0.3c1.2,0,2.19,0.43,2.98,1.29
				c0.79,0.86,1.18,2.1,1.18,3.72c0,1.08-0.18,2.02-0.54,2.84c-0.36,0.82-0.85,1.43-1.49,1.84c-0.63,0.4-1.34,0.61-2.11,0.61
				c-0.66,0-1.27-0.14-1.82-0.43c-0.41-0.22-0.87-0.64-1.35-1.25v1.46h-3.53V577.6z M544.38,586.25c0,0.85,0.16,1.46,0.48,1.84
				c0.32,0.38,0.72,0.57,1.21,0.57c0.45,0,0.83-0.19,1.14-0.56c0.31-0.37,0.46-1,0.46-1.89c0-0.78-0.15-1.35-0.45-1.72
				c-0.3-0.37-0.66-0.55-1.09-0.55c-0.51,0-0.93,0.19-1.26,0.57C544.54,584.9,544.38,585.47,544.38,586.25z"/>
			<path class="st5" d="M553.38,577.6h3.79v13.6h-3.79V577.6z"/>
			<path class="st5" d="M570.51,587.21h-7.57c0.07,0.61,0.23,1.06,0.49,1.35c0.36,0.43,0.84,0.64,1.43,0.64
				c0.37,0,0.72-0.09,1.06-0.28c0.2-0.12,0.42-0.32,0.66-0.62l3.72,0.34c-0.57,0.99-1.26,1.7-2.06,2.13
				c-0.8,0.43-1.96,0.64-3.46,0.64c-1.31,0-2.33-0.18-3.08-0.55c-0.75-0.37-1.37-0.95-1.86-1.75c-0.49-0.8-0.74-1.74-0.74-2.83
				c0-1.54,0.49-2.79,1.48-3.74c0.99-0.95,2.35-1.43,4.09-1.43c1.41,0,2.52,0.21,3.34,0.64c0.82,0.43,1.44,1.05,1.86,1.86
				c0.43,0.81,0.64,1.87,0.64,3.16V587.21z M566.67,585.4c-0.07-0.73-0.27-1.25-0.59-1.57c-0.32-0.32-0.74-0.47-1.26-0.47
				c-0.6,0-1.08,0.24-1.44,0.71c-0.23,0.3-0.37,0.74-0.44,1.33H566.67z"/>
			<path class="st5" d="M578.83,577.6h11.26v2.9h-7.05v2.16h6.54v2.77h-6.54v2.68h7.25v3.08h-11.47V577.6z"/>
			<path class="st5" d="M592.31,581.35h3.52v1.6c0.53-0.66,1.06-1.12,1.6-1.41c0.54-0.28,1.19-0.42,1.97-0.42
				c1.04,0,1.86,0.31,2.45,0.93c0.59,0.62,0.89,1.58,0.89,2.88v6.26h-3.79v-5.42c0-0.62-0.11-1.06-0.34-1.31
				c-0.23-0.26-0.55-0.38-0.96-0.38c-0.46,0-0.83,0.17-1.11,0.52c-0.28,0.35-0.43,0.97-0.43,1.86v4.73h-3.78V581.35z"/>
			<path class="st5" d="M615.92,587.21h-7.57c0.07,0.61,0.23,1.06,0.49,1.35c0.36,0.43,0.84,0.64,1.43,0.64
				c0.37,0,0.72-0.09,1.06-0.28c0.2-0.12,0.42-0.32,0.66-0.62l3.72,0.34c-0.57,0.99-1.26,1.7-2.06,2.13
				c-0.8,0.43-1.96,0.64-3.46,0.64c-1.31,0-2.33-0.18-3.08-0.55c-0.75-0.37-1.37-0.95-1.86-1.75c-0.49-0.8-0.74-1.74-0.74-2.83
				c0-1.54,0.49-2.79,1.48-3.74c0.99-0.95,2.35-1.43,4.09-1.43c1.41,0,2.52,0.21,3.34,0.64c0.82,0.43,1.44,1.05,1.86,1.86
				c0.43,0.81,0.64,1.87,0.64,3.16V587.21z M612.08,585.4c-0.07-0.73-0.27-1.25-0.59-1.57c-0.32-0.32-0.74-0.47-1.26-0.47
				c-0.6,0-1.08,0.24-1.44,0.71c-0.23,0.3-0.37,0.74-0.44,1.33H612.08z"/>
			<path class="st5" d="M617.69,581.35h3.53v1.61c0.34-0.7,0.69-1.18,1.05-1.44c0.36-0.26,0.81-0.39,1.34-0.39
				c0.56,0,1.17,0.17,1.83,0.52l-1.17,2.69c-0.45-0.19-0.8-0.28-1.06-0.28c-0.5,0-0.88,0.2-1.15,0.61
				c-0.39,0.58-0.58,1.65-0.58,3.23v3.3h-3.79V581.35z"/>
			<path class="st5" d="M633.42,581.35h3.53v9.31l0.01,0.44c0,0.62-0.13,1.21-0.39,1.77c-0.26,0.56-0.61,1.01-1.05,1.36
				c-0.44,0.35-0.99,0.6-1.66,0.75s-1.44,0.23-2.3,0.23c-1.98,0-3.34-0.3-4.08-0.89c-0.74-0.59-1.11-1.39-1.11-2.38
				c0-0.12,0.01-0.29,0.02-0.5l3.66,0.42c0.09,0.34,0.24,0.57,0.43,0.71c0.28,0.19,0.63,0.29,1.05,0.29c0.54,0,0.95-0.15,1.22-0.44
				c0.27-0.29,0.4-0.8,0.4-1.52v-1.49c-0.37,0.44-0.74,0.76-1.11,0.96c-0.58,0.31-1.21,0.46-1.88,0.46c-1.32,0-2.38-0.58-3.19-1.73
				c-0.58-0.82-0.86-1.9-0.86-3.24c0-1.53,0.37-2.7,1.11-3.51c0.74-0.8,1.71-1.21,2.91-1.21c0.77,0,1.4,0.13,1.9,0.39
				s0.96,0.69,1.4,1.29V581.35z M629.86,586.13c0,0.71,0.15,1.24,0.46,1.58c0.3,0.34,0.7,0.51,1.2,0.51c0.47,0,0.86-0.18,1.18-0.53
				c0.32-0.36,0.48-0.89,0.48-1.61s-0.17-1.27-0.5-1.65c-0.33-0.38-0.74-0.57-1.22-0.57s-0.87,0.17-1.16,0.52
				C630.01,584.74,629.86,585.32,629.86,586.13z"/>
			<path class="st5" d="M639.37,577.6h3.78v2.57h-3.78V577.6z M639.37,581.35h3.78v9.85h-3.78V581.35z"/>
			<path class="st5" d="M656.5,587.21h-7.57c0.07,0.61,0.23,1.06,0.49,1.35c0.37,0.43,0.84,0.64,1.43,0.64
				c0.37,0,0.72-0.09,1.06-0.28c0.21-0.12,0.42-0.32,0.66-0.62l3.72,0.34c-0.57,0.99-1.25,1.7-2.06,2.13
				c-0.8,0.43-1.96,0.64-3.46,0.64c-1.3,0-2.33-0.18-3.08-0.55c-0.75-0.37-1.37-0.95-1.86-1.75c-0.49-0.8-0.74-1.74-0.74-2.83
				c0-1.54,0.49-2.79,1.48-3.74s2.35-1.43,4.09-1.43c1.41,0,2.52,0.21,3.34,0.64c0.82,0.43,1.44,1.05,1.87,1.86
				c0.43,0.81,0.64,1.87,0.64,3.16V587.21z M652.66,585.4c-0.07-0.73-0.27-1.25-0.59-1.57c-0.32-0.32-0.74-0.47-1.26-0.47
				c-0.6,0-1.08,0.24-1.44,0.71c-0.23,0.3-0.37,0.74-0.44,1.33H652.66z"/>
			<path class="st5" d="M657.56,588.47l3.75-0.35c0.16,0.45,0.37,0.76,0.65,0.96c0.28,0.19,0.65,0.29,1.11,0.29
				c0.51,0,0.9-0.11,1.18-0.33c0.22-0.16,0.32-0.36,0.32-0.6c0-0.27-0.14-0.48-0.43-0.63c-0.21-0.11-0.75-0.23-1.62-0.39
				c-1.31-0.23-2.22-0.44-2.73-0.63c-0.51-0.19-0.94-0.52-1.29-0.99c-0.35-0.46-0.52-0.99-0.52-1.58c0-0.65,0.19-1.21,0.57-1.68
				c0.38-0.47,0.9-0.82,1.56-1.05c0.66-0.23,1.55-0.35,2.66-0.35c1.17,0,2.04,0.09,2.6,0.27c0.56,0.18,1.03,0.46,1.4,0.84
				c0.37,0.38,0.69,0.89,0.93,1.53l-3.58,0.35c-0.09-0.32-0.25-0.55-0.46-0.7c-0.3-0.2-0.66-0.3-1.08-0.3
				c-0.43,0-0.74,0.08-0.93,0.23c-0.19,0.15-0.29,0.33-0.29,0.55c0,0.24,0.12,0.42,0.37,0.55c0.25,0.12,0.79,0.23,1.61,0.33
				c1.26,0.14,2.19,0.34,2.8,0.59c0.61,0.25,1.08,0.61,1.41,1.08c0.33,0.47,0.49,0.99,0.49,1.55c0,0.57-0.17,1.12-0.51,1.66
				c-0.34,0.54-0.88,0.97-1.62,1.28c-0.74,0.32-1.75,0.48-3.02,0.48c-1.8,0-3.08-0.26-3.85-0.77
				C658.27,590.14,657.78,589.41,657.56,588.47z"/>
			<path class="st5" d="M680.38,581.35h1.8v2.76h-1.8v7.09h-3.79v-7.09h-1.41v-2.76h1.41v-0.45c0-0.4,0.04-0.84,0.13-1.33
				s0.25-0.88,0.49-1.18c0.24-0.31,0.57-0.55,1-0.74c0.43-0.19,1.06-0.28,1.89-0.28c0.66,0,1.62,0.08,2.89,0.23l-0.42,2.28
				c-0.45-0.07-0.82-0.11-1.09-0.11c-0.34,0-0.58,0.06-0.73,0.17s-0.25,0.29-0.31,0.54C680.39,580.62,680.38,580.91,680.38,581.35z"
				/>
			<path class="st5" d="M682.78,586.3c0-1.5,0.51-2.74,1.52-3.72c1.01-0.97,2.38-1.46,4.11-1.46c1.97,0,3.46,0.57,4.47,1.72
				c0.81,0.92,1.22,2.06,1.22,3.41c0,1.52-0.5,2.76-1.51,3.72c-1.01,0.97-2.4,1.45-4.17,1.45c-1.58,0-2.86-0.4-3.84-1.21
				C683.38,589.22,682.78,587.92,682.78,586.3z M686.57,586.29c0,0.88,0.18,1.53,0.53,1.95c0.36,0.42,0.8,0.63,1.34,0.63
				c0.54,0,0.99-0.21,1.34-0.62s0.52-1.08,0.52-2c0-0.85-0.18-1.49-0.53-1.91c-0.35-0.42-0.79-0.63-1.31-0.63
				c-0.55,0-1,0.21-1.36,0.64C686.74,584.78,686.57,585.43,686.57,586.29z"/>
			<path class="st5" d="M695.95,581.35h3.54v1.61c0.34-0.7,0.69-1.18,1.05-1.44c0.36-0.26,0.81-0.39,1.34-0.39
				c0.56,0,1.17,0.17,1.83,0.52l-1.17,2.69c-0.45-0.19-0.8-0.28-1.06-0.28c-0.49,0-0.88,0.2-1.15,0.61
				c-0.39,0.58-0.58,1.65-0.58,3.23v3.3h-3.79V581.35z"/>
			<path class="st5" d="M714.13,584.54l-3.61-0.38c0.14-0.63,0.33-1.13,0.59-1.49c0.26-0.36,0.63-0.68,1.11-0.94
				c0.35-0.19,0.82-0.34,1.43-0.45c0.61-0.1,1.26-0.16,1.97-0.16c1.13,0,2.04,0.06,2.73,0.19s1.26,0.39,1.72,0.79
				c0.32,0.28,0.57,0.67,0.76,1.18c0.19,0.51,0.28,1,0.28,1.46v4.35c0,0.46,0.03,0.83,0.09,1.09c0.06,0.26,0.19,0.6,0.38,1.01h-3.54
				c-0.14-0.25-0.24-0.45-0.28-0.58c-0.04-0.13-0.09-0.34-0.13-0.63c-0.5,0.48-0.99,0.82-1.48,1.02c-0.67,0.27-1.44,0.41-2.33,0.41
				c-1.17,0-2.07-0.27-2.68-0.82s-0.91-1.21-0.91-2.01c0-0.75,0.22-1.36,0.66-1.85s1.25-0.84,2.43-1.08
				c1.42-0.28,2.33-0.48,2.75-0.6c0.42-0.11,0.87-0.26,1.34-0.45c0-0.46-0.1-0.79-0.29-0.97s-0.53-0.28-1.01-0.28
				c-0.62,0-1.08,0.1-1.39,0.3C714.47,583.82,714.28,584.11,714.13,584.54z M717.4,586.53c-0.52,0.19-1.06,0.35-1.62,0.49
				c-0.77,0.2-1.25,0.4-1.46,0.6c-0.21,0.2-0.31,0.44-0.31,0.7c0,0.3,0.1,0.54,0.31,0.73c0.21,0.19,0.51,0.28,0.91,0.28
				c0.42,0,0.81-0.1,1.17-0.31c0.36-0.21,0.62-0.45,0.77-0.75c0.15-0.29,0.23-0.68,0.23-1.15V586.53z"/>
			<path class="st5" d="M729.95,577.6h7.87c1.31,0,2.32,0.33,3.02,0.97c0.7,0.65,1.05,1.45,1.05,2.41c0,0.8-0.25,1.49-0.75,2.07
				c-0.33,0.38-0.82,0.69-1.47,0.91c0.98,0.24,1.7,0.64,2.16,1.21s0.69,1.29,0.69,2.16c0,0.71-0.16,1.34-0.49,1.9
				c-0.33,0.56-0.78,1.01-1.35,1.34c-0.35,0.2-0.88,0.35-1.6,0.45c-0.95,0.12-1.57,0.19-1.88,0.19h-7.26V577.6z M734.19,582.94h1.83
				c0.66,0,1.11-0.11,1.37-0.34c0.26-0.23,0.38-0.55,0.38-0.98c0-0.4-0.13-0.71-0.38-0.93c-0.26-0.22-0.7-0.33-1.34-0.33h-1.86
				V582.94z M734.19,588.28h2.14c0.72,0,1.23-0.13,1.53-0.39c0.3-0.26,0.45-0.6,0.45-1.03c0-0.4-0.15-0.72-0.44-0.97
				c-0.29-0.24-0.81-0.37-1.54-0.37h-2.13V588.28z"/>
			<path class="st5" d="M755.41,587.21h-7.57c0.07,0.61,0.23,1.06,0.49,1.35c0.37,0.43,0.84,0.64,1.43,0.64
				c0.37,0,0.72-0.09,1.06-0.28c0.21-0.12,0.42-0.32,0.66-0.62l3.72,0.34c-0.57,0.99-1.25,1.7-2.06,2.13
				c-0.8,0.43-1.96,0.64-3.46,0.64c-1.3,0-2.33-0.18-3.08-0.55c-0.75-0.37-1.37-0.95-1.86-1.75c-0.49-0.8-0.74-1.74-0.74-2.83
				c0-1.54,0.49-2.79,1.48-3.74s2.35-1.43,4.09-1.43c1.41,0,2.52,0.21,3.34,0.64c0.82,0.43,1.44,1.05,1.87,1.86
				c0.43,0.81,0.64,1.87,0.64,3.16V587.21z M751.57,585.4c-0.07-0.73-0.27-1.25-0.59-1.57c-0.32-0.32-0.74-0.47-1.26-0.47
				c-0.6,0-1.08,0.24-1.44,0.71c-0.23,0.3-0.37,0.74-0.44,1.33H751.57z"/>
			<path class="st5" d="M761.7,577.6v3.75h2.08v2.76h-2.08v3.49c0,0.42,0.04,0.7,0.12,0.83c0.12,0.21,0.34,0.31,0.65,0.31
				c0.28,0,0.67-0.08,1.17-0.24l0.28,2.61c-0.93,0.21-1.81,0.31-2.62,0.31c-0.94,0-1.63-0.12-2.08-0.36s-0.77-0.61-0.99-1.1
				c-0.21-0.49-0.32-1.29-0.32-2.39v-3.47h-1.39v-2.76h1.39v-1.81L761.7,577.6z"/>
			<path class="st5" d="M770.13,577.6v3.75h2.08v2.76h-2.08v3.49c0,0.42,0.04,0.7,0.12,0.83c0.12,0.21,0.34,0.31,0.65,0.31
				c0.28,0,0.67-0.08,1.17-0.24l0.28,2.61c-0.93,0.21-1.81,0.31-2.62,0.31c-0.94,0-1.63-0.12-2.08-0.36s-0.77-0.61-0.99-1.1
				c-0.21-0.49-0.32-1.29-0.32-2.39v-3.47h-1.39v-2.76h1.39v-1.81L770.13,577.6z"/>
			<path class="st5" d="M784.95,587.21h-7.57c0.07,0.61,0.23,1.06,0.49,1.35c0.37,0.43,0.84,0.64,1.43,0.64
				c0.37,0,0.72-0.09,1.06-0.28c0.21-0.12,0.42-0.32,0.66-0.62l3.72,0.34c-0.57,0.99-1.25,1.7-2.06,2.13
				c-0.8,0.43-1.96,0.64-3.46,0.64c-1.3,0-2.33-0.18-3.08-0.55c-0.75-0.37-1.37-0.95-1.86-1.75c-0.49-0.8-0.74-1.74-0.74-2.83
				c0-1.54,0.49-2.79,1.48-3.74s2.35-1.43,4.09-1.43c1.41,0,2.52,0.21,3.34,0.64c0.82,0.43,1.44,1.05,1.87,1.86
				c0.43,0.81,0.64,1.87,0.64,3.16V587.21z M781.11,585.4c-0.07-0.73-0.27-1.25-0.59-1.57c-0.32-0.32-0.74-0.47-1.26-0.47
				c-0.6,0-1.08,0.24-1.44,0.71c-0.23,0.3-0.37,0.74-0.44,1.33H781.11z"/>
			<path class="st5" d="M786.72,581.35h3.54v1.61c0.34-0.7,0.69-1.18,1.05-1.44c0.36-0.26,0.81-0.39,1.34-0.39
				c0.56,0,1.17,0.17,1.83,0.52l-1.17,2.69c-0.45-0.19-0.8-0.28-1.06-0.28c-0.49,0-0.88,0.2-1.15,0.61
				c-0.39,0.58-0.58,1.65-0.58,3.23v3.3h-3.79V581.35z"/>
			<path class="st5" d="M800.75,577.6h12.78v3.36h-4.29v10.24h-4.2v-10.24h-4.29V577.6z"/>
			<path class="st5" d="M813.42,586.3c0-1.5,0.51-2.74,1.52-3.72c1.01-0.97,2.38-1.46,4.11-1.46c1.97,0,3.46,0.57,4.47,1.72
				c0.81,0.92,1.22,2.06,1.22,3.41c0,1.52-0.5,2.76-1.51,3.72c-1.01,0.97-2.4,1.45-4.17,1.45c-1.58,0-2.86-0.4-3.84-1.21
				C814.02,589.22,813.42,587.92,813.42,586.3z M817.21,586.29c0,0.88,0.18,1.53,0.53,1.95c0.36,0.42,0.8,0.63,1.34,0.63
				c0.54,0,0.99-0.21,1.34-0.62s0.52-1.08,0.52-2c0-0.85-0.18-1.49-0.53-1.91c-0.35-0.42-0.79-0.63-1.31-0.63
				c-0.55,0-1,0.21-1.36,0.64C817.39,584.78,817.21,585.43,817.21,586.29z"/>
			<path class="st5" d="M826.59,581.35h3.53v1.44c0.51-0.6,1.02-1.03,1.54-1.28c0.52-0.25,1.14-0.38,1.87-0.38
				c0.79,0,1.41,0.14,1.87,0.42c0.46,0.28,0.83,0.69,1.12,1.24c0.59-0.64,1.13-1.08,1.62-1.31c0.49-0.23,1.09-0.35,1.81-0.35
				c1.06,0,1.88,0.31,2.47,0.94c0.59,0.63,0.89,1.61,0.89,2.95v6.19h-3.79v-5.61c0-0.45-0.09-0.78-0.26-0.99
				c-0.25-0.34-0.57-0.51-0.94-0.51c-0.44,0-0.8,0.16-1.07,0.48c-0.27,0.32-0.41,0.84-0.41,1.55v5.08h-3.79v-5.43
				c0-0.43-0.02-0.73-0.07-0.88c-0.08-0.25-0.22-0.45-0.42-0.6c-0.2-0.15-0.43-0.23-0.7-0.23c-0.43,0-0.79,0.16-1.07,0.49
				s-0.42,0.87-0.42,1.61v5.03h-3.79V581.35z"/>
			<path class="st5" d="M845.1,586.3c0-1.5,0.51-2.74,1.52-3.72c1.01-0.97,2.38-1.46,4.11-1.46c1.97,0,3.46,0.57,4.47,1.72
				c0.81,0.92,1.22,2.06,1.22,3.41c0,1.52-0.5,2.76-1.51,3.72c-1.01,0.97-2.4,1.45-4.17,1.45c-1.58,0-2.86-0.4-3.84-1.21
				C845.7,589.22,845.1,587.92,845.1,586.3z M848.88,586.29c0,0.88,0.18,1.53,0.53,1.95c0.36,0.42,0.8,0.63,1.34,0.63
				c0.54,0,0.99-0.21,1.34-0.62s0.52-1.08,0.52-2c0-0.85-0.18-1.49-0.53-1.91c-0.35-0.42-0.79-0.63-1.31-0.63
				c-0.55,0-1,0.21-1.36,0.64C849.06,584.78,848.88,585.43,848.88,586.29z"/>
			<path class="st5" d="M858.27,581.35h3.54v1.61c0.34-0.7,0.69-1.18,1.05-1.44c0.36-0.26,0.81-0.39,1.34-0.39
				c0.56,0,1.17,0.17,1.83,0.52l-1.17,2.69c-0.45-0.19-0.8-0.28-1.06-0.28c-0.49,0-0.88,0.2-1.15,0.61
				c-0.39,0.58-0.58,1.65-0.58,3.23v3.3h-3.79V581.35z"/>
			<path class="st5" d="M867.5,581.35h3.54v1.61c0.34-0.7,0.69-1.18,1.05-1.44c0.36-0.26,0.81-0.39,1.34-0.39
				c0.56,0,1.17,0.17,1.83,0.52l-1.17,2.69c-0.45-0.19-0.8-0.28-1.06-0.28c-0.49,0-0.88,0.2-1.15,0.61
				c-0.39,0.58-0.58,1.65-0.58,3.23v3.3h-3.79V581.35z"/>
			<path class="st5" d="M875.74,586.3c0-1.5,0.51-2.74,1.52-3.72c1.01-0.97,2.38-1.46,4.11-1.46c1.97,0,3.46,0.57,4.47,1.72
				c0.81,0.92,1.22,2.06,1.22,3.41c0,1.52-0.5,2.76-1.51,3.72c-1.01,0.97-2.4,1.45-4.17,1.45c-1.58,0-2.86-0.4-3.84-1.21
				C876.34,589.22,875.74,587.92,875.74,586.3z M879.52,586.29c0,0.88,0.18,1.53,0.53,1.95c0.36,0.42,0.8,0.63,1.34,0.63
				c0.54,0,0.99-0.21,1.34-0.62s0.52-1.08,0.52-2c0-0.85-0.18-1.49-0.53-1.91c-0.35-0.42-0.79-0.63-1.31-0.63
				c-0.55,0-1,0.21-1.36,0.64C879.7,584.78,879.52,585.43,879.52,586.29z"/>
			<path class="st5" d="M887.43,581.35h3.65l1.58,6.2l2-6.2h3.41l2.08,6.22l1.59-6.22h3.63l-3.63,9.85h-3.36l-2-5.93l-1.93,5.93
				h-3.38L887.43,581.35z"/>
			<path class="st5" d="M904.86,587.42h4.04v3.79h-4.04V587.42z"/>
		</g>
	</g>
</g>
</svg>
